<?xml version="1.0" encoding="utf-8"?>
<!-- Generator: Adobe Illustrator 16.0.0, SVG Export Plug-In . SVG Version: 6.00 Build 0)  -->
<!DOCTYPE svg PUBLIC "-//W3C//DTD SVG 1.1//EN" "http://www.w3.org/Graphics/SVG/1.1/DTD/svg11.dtd">
<svg version="1.1" xmlns="http://www.w3.org/2000/svg" xmlns:xlink="http://www.w3.org/1999/xlink" x="0px" y="0px" width="530px"
	 height="530px" viewBox="0 0 530 530" enable-background="new 0 0 530 530" xml:space="preserve">
<g id="Layer_2" display="none">
	<rect display="inline" width="530" height="530"/>
</g>
<g id="Layer_1">
	<g>
		<g>
			<path fill="#FFFFFF" d="M457.332,414.5c-0.735-0.01-1.465-0.037-2.198-0.084c-2.674-0.173,3.102,0.523,0.494,0.078
				c-1.373-0.235-2.714-0.631-4.031-1.076c-2.44-0.825,2.777,1.278,0.432,0.212c-0.631-0.287-1.24-0.62-1.849-0.951
				c-0.994-0.541-5.334-3.763-2.141-1.229c-2.355-1.868-4.43-4.073-6.365-6.364c-0.464-0.55-2.148-2.772-0.016,0.034
				c-0.494-0.649-0.964-1.315-1.435-1.981c-1.137-1.608-2.187-3.276-3.211-4.957c-3.998-6.562-7.233-13.581-10.294-20.618
				c-0.389-0.893-0.77-1.788-1.15-2.685c1.238,2.911-0.06-0.161-0.257-0.635c-0.76-1.828-1.506-3.661-2.25-5.495
				c-1.621-3.99-3.221-7.991-4.846-11.98c-10.474-25.716-26.557-66.099-61.257-62.035c-34.21,4.007-46.76,44.058-57.731,71.252
				c-0.743,1.841-1.49,3.681-2.241,5.519c-0.348,0.853-2.602,6.254-1.385,3.375c-1.617,3.826-3.307,7.62-5.091,11.371
				c-3.13,6.58-6.653,13.008-10.999,18.87c2.267-3.058-0.908,1.013-1.541,1.721c-1.002,1.119-2.077,2.17-3.181,3.188
				c-0.536,0.494-1.098,0.958-1.659,1.422c2.837-2.341,0.922-0.725,0.24-0.248c-1.336,0.933-2.766,1.719-4.23,2.429
				c-2.319,1.123,2.851-1.1,0.432-0.212c-0.65,0.238-1.318,0.427-1.984,0.614c-0.674,0.189-1.361,0.325-2.047,0.462
				c-2.596,0.514,3.163-0.32,0.494-0.078c-1.461,0.132-2.935,0.094-4.397,0c-2.674-0.173,3.102,0.523,0.495,0.078
				c-0.918-0.157-1.82-0.398-2.715-0.65c-0.666-0.188-1.316-0.426-1.965-0.664c3.539,1.299,1.273,0.544,0.457,0.148
				c-1.258-0.609-2.447-1.353-3.608-2.127c-0.673-0.449-2.67-2.061,0.241,0.248c-0.571-0.453-1.115-0.938-1.66-1.422
				c-1.314-1.169-2.522-2.452-3.694-3.761c-0.521-0.582-1.016-1.187-1.511-1.789c-1.792-2.18,1.705,2.291,0-0.009
				c-0.988-1.333-1.907-2.717-2.809-4.109c-2.076-3.207-3.911-6.567-5.659-9.962c-1.719-3.34-3.296-6.753-4.827-10.182
				c-0.791-1.771-1.555-3.554-2.314-5.338c1.239,2.911-0.06-0.161-0.257-0.635c-0.506-1.217-1.004-2.437-1.503-3.657
				c-3.405-8.333-6.73-16.695-10.255-24.98c-5.898-13.862-12.736-28.258-23.797-38.811c-11.105-10.595-27.425-15.505-42.205-10.082
				c-27.776,10.193-38.315,44.451-48.33,69.271c-1.358,3.365-2.727,6.726-4.125,10.074c1.25-2.991-0.747,1.725-1.037,2.393
				c-0.764,1.756-1.552,3.502-2.353,5.241c-2.868,6.236-6.043,12.346-9.832,18.075c-0.754,1.142-1.555,2.252-2.37,3.352
				c2.267-3.057-0.908,1.013-1.542,1.721c-0.837,0.936-1.729,1.82-2.638,2.688c-0.53,0.506-1.087,0.984-1.644,1.461
				c-2.01,1.723,2.378-1.737,0.263-0.193c-0.946,0.69-1.948,1.301-2.962,1.884c-0.601,0.346-1.226,0.648-1.849,0.951
				c-2.32,1.123,2.85-1.1,0.431-0.212c-1.308,0.479-2.667,0.806-4.032,1.076c-2.595,0.514,3.163-0.32,0.495-0.078
				c-0.731,0.065-1.465,0.074-2.199,0.084c-16.109,0.205-16.129,25.205,0,25c34.733-0.442,48.72-40.182,59.5-66.87
				c1.488-3.685,2.969-7.372,4.477-11.049c0.375-0.912,0.752-1.822,1.131-2.733c1.278-3.074-1.036,2.425,0.262-0.624
				c0.882-2.072,1.79-4.134,2.715-6.187c3.08-6.834,6.485-13.546,10.623-19.805c0.52-0.787,3.754-5.121,1.393-2.091
				c0.957-1.228,1.982-2.399,3.037-3.543c1.011-1.097,2.096-2.122,3.21-3.113c0.599-0.532,2.693-2.128-0.285,0.139
				c0.75-0.57,1.54-1.087,2.334-1.593c1.173-0.747,2.417-1.372,3.681-1.947c-3.825,1.739,0.52-0.014,1.6-0.287
				c0.682-0.173,1.375-0.291,2.068-0.409c-3.875,0.661-1.393,0.21-0.465,0.149c1.24-0.079,6.844,0.478,2.481-0.149
				c1.384,0.199,2.74,0.561,4.073,0.974c0.809,0.25,3.159,1.238-0.406-0.277c0.637,0.271,1.253,0.589,1.868,0.905
				c1.248,0.642,2.424,1.413,3.572,2.216c2.147,1.499-2.305-1.878-0.263-0.193c0.757,0.624,1.472,1.297,2.181,1.974
				c1.102,1.052,2.124,2.185,3.122,3.333c0.516,0.594,1.007,1.209,1.498,1.823c-2.213-2.767-0.439-0.532-0.018,0.05
				c2.172,3.001,4.075,6.192,5.875,9.426c1.786,3.209,3.405,6.51,4.967,9.833c0.812,1.727,1.591,3.47,2.363,5.215
				c0.392,0.886,0.775,1.774,1.159,2.663c0.257,0.598,0.512,1.195,0.766,1.794c-0.625-1.483-0.666-1.575-0.121-0.274
				c3.185,7.623,6.184,15.321,9.354,22.95c11.392,27.415,29.214,64.694,65.475,56.513c14.984-3.382,25.68-16.413,33.07-29.007
				c8.467-14.428,14.143-30.448,20.432-45.89c0.745-1.828,1.499-3.652,2.26-5.473c-1.206,2.886,1.058-2.44,1.425-3.276
				c1.638-3.734,3.37-7.426,5.216-11.062c1.601-3.155,3.337-6.239,5.204-9.245c0.882-1.419,1.821-2.802,2.785-4.166
				c0.411-0.581,2.168-2.854-0.018-0.05c0.643-0.824,1.321-1.619,2.007-2.408c0.992-1.142,2.057-2.217,3.15-3.261
				c0.531-0.506,1.087-0.984,1.644-1.461c2.011-1.723-2.378,1.737-0.263,0.193c1.134-0.827,2.341-1.546,3.572-2.216
				c0.607-0.331,1.238-0.618,1.868-0.905c-3.662,1.665-0.648,0.353,0.256,0.072c1.08-0.335,5.836-1.015,1.502-0.507
				c1.456-0.171,2.928-0.168,4.391-0.112c0.885,0.034,3.499,0.421-0.466-0.149c0.695,0.1,1.382,0.255,2.067,0.409
				c0.678,0.152,1.342,0.358,2.005,0.564c3.242,1.004-1.753-0.89,0.224,0.009c1.055,0.48,2.062,1.062,3.052,1.661
				c0.604,0.365,1.182,0.77,1.759,1.174c2.147,1.499-2.305-1.878-0.263-0.193c2.132,1.759,4.026,3.796,5.807,5.903
				c2.275,2.694-1.133-1.638,0.977,1.276c0.979,1.354,1.891,2.756,2.785,4.166c1.895,2.988,3.586,6.102,5.204,9.245
				c1.572,3.056,3.023,6.174,4.435,9.306c0.661,1.467,1.302,2.943,1.939,4.42c0.205,0.476,1.488,3.521,0.266,0.613
				c0.382,0.907,0.758,1.817,1.134,2.727c2.906,7.027,5.681,14.107,8.599,21.13c10.229,24.619,24.468,57.304,55.75,57.702
				C473.461,439.705,473.441,414.705,457.332,414.5L457.332,414.5z"/>
		</g>
	</g>
	<g>
		<g>
			<path fill="#FFFFFF" d="M514,502.5c-29.234,0-58.469,0-87.704,0c-62.419,0-124.839,0-187.259,0c-57.679,0-115.358,0-173.037,0
				c-17.333,0-34.667,0-52,0c4.167,4.167,8.333,8.333,12.5,12.5c0-29.234,0-58.469,0-87.704c0-62.419,0-124.839,0-187.259
				c0-57.679,0-115.358,0-173.037c0-17.333,0-34.667,0-52c-4.167,4.167-8.333,8.333-12.5,12.5c29.234,0,58.469,0,87.704,0
				c62.42,0,124.839,0,187.259,0c57.679,0,115.358,0,173.037,0c17.333,0,34.667,0,52,0c-4.167-4.167-8.333-8.333-12.5-12.5
				c0,29.234,0,58.469,0,87.704c0,62.42,0,124.839,0,187.259c0,57.679,0,115.358,0,173.037c0,17.333,0,34.667,0,52
				c0,16.122,25,16.122,25,0c0-29.234,0-58.469,0-87.704c0-62.419,0-124.839,0-187.259c0-57.679,0-115.358,0-173.037
				c0-17.333,0-34.667,0-52c0-6.814-5.686-12.5-12.5-12.5c-29.234,0-58.469,0-87.704,0c-62.419,0-124.839,0-187.259,0
				c-57.679,0-115.358,0-173.037,0c-17.333,0-34.667,0-52,0C7.186,2.5,1.5,8.186,1.5,15c0,29.234,0,58.469,0,87.704
				c0,62.42,0,124.839,0,187.259c0,57.679,0,115.358,0,173.037c0,17.333,0,34.667,0,52c0,6.814,5.686,12.5,12.5,12.5
				c29.234,0,58.469,0,87.704,0c62.42,0,124.839,0,187.259,0c57.679,0,115.358,0,173.037,0c17.333,0,34.667,0,52,0
				C530.122,527.5,530.122,502.5,514,502.5z"/>
		</g>
	</g>
	<g>
		<g>
			<path fill="#FFFFFF" d="M74.305,231.961c38.278-26.874,76.556-53.747,114.834-80.62c26.611-18.683,53.222-37.365,79.833-56.047
				c5.565-3.907,8.145-10.854,4.484-17.103c-3.228-5.51-11.516-8.406-17.102-4.484c-38.278,26.874-76.556,53.747-114.834,80.62
				c-26.611,18.683-53.222,37.365-79.833,56.047c-5.564,3.907-8.145,10.854-4.484,17.103
				C60.431,232.987,68.719,235.883,74.305,231.961L74.305,231.961z"/>
		</g>
	</g>
	<g>
		<g>
			<path fill="#FFFFFF" d="M250.164,84.501c0,45.442,0,90.884,0,136.326c0,0.113,0,0.227,0,0.341c0,16.122,25,16.122,25,0
				c0-45.442,0-90.884,0-136.326c0-0.113,0-0.227,0-0.341C275.164,68.379,250.164,68.379,250.164,84.501L250.164,84.501z"/>
		</g>
	</g>
	<g>
		<g>
			<path fill="#FFFFFF" d="M268.973,231.961c38.278-26.874,76.557-53.747,114.835-80.62c26.611-18.683,53.223-37.365,79.833-56.047
				c5.565-3.907,8.145-10.854,4.484-17.103c-3.228-5.51-11.516-8.406-17.102-4.484c-38.278,26.874-76.557,53.747-114.835,80.62
				c-26.611,18.683-53.223,37.365-79.833,56.047c-5.564,3.907-8.145,10.854-4.484,17.103
				C255.099,232.987,263.387,235.883,268.973,231.961L268.973,231.961z"/>
		</g>
	</g>
	<g>
		<g>
			<path fill="#FFFFFF" d="M444.832,84.501c0,45.442,0,90.884,0,136.326c0,0.113,0,0.227,0,0.341c0,16.122,25,16.122,25,0
				c0-45.442,0-90.884,0-136.326c0-0.113,0-0.227,0-0.341C469.832,68.379,444.832,68.379,444.832,84.501L444.832,84.501z"/>
		</g>
	</g>
	<path fill="none" stroke="#FFFFFF" stroke-width="5" stroke-miterlimit="10" d="M71.666,300"/>
</g>
</svg>
